Coordinates
version=1
nRows=7
nColumns=33
inDegrees=yes

Units are S.I. units (second, meters, Newtons, ...)
Angles are in degrees.

endheader
time	ground_thorax_rot_x	ground_thorax_rot_y	ground_thorax_rot_z	ground_thorax_tx	ground_thorax_ty	ground_thorax_tz	clav_prot_r	clav_elev_r	scapula_abduction_r	scapula_elevation_r	scapula_upward_rot_r	scapula_winging_r	shoulder_elv_r	plane_of_elev_r	axial_rot_r	elbow_flexion_r	pro_sup_r	wrist_flex_r	wrist_dev_r	clav_prot_l	clav_elev_l	scapula_abduction_l	scapula_elevation_l	scapula_upward_rot_l	scapula_winging_l	shoulder_elv_l	plane_of_elev_l	axial_rot_l	elbow_flexion_l	pro_sup_l	wrist_flex_l	wrist_dev_l
      9.25000000	    -38.94511967	     -8.35800747	     13.82722140	   -251.02020200	    848.20722424	      4.53177148	      6.94902190	    -39.83741593	     37.48587738	    -45.00000000	     43.51314508	   2507.40975732	  -2639.57399159	    -90.00000000	    -72.04062168	   1801.60706431	   -120.91445475	     19.41202362	     14.96655876	     -2.36007615	     42.14198748	    -45.00000000	    -45.00000000	     35.61024395	  -2400.23029260	   -272.04933312	     11.15305991	    179.99999979	   1093.09549152	    206.42227397	     10.62656552	    -16.35221227
      9.26000000	    -38.93881190	     -8.75393669	     14.15750276	   -250.84540288	    847.76718958	      4.50802098	      6.84151380	    -39.83681928	     37.74660535	    -45.00000000	     43.31116907	   2507.26199375	  -2639.37672782	    -90.00000000	    -72.22669443	   1801.67980912	   -120.98899937	     19.36712133	     14.84163683	     -2.30072683	     42.17798238	    -45.00000000	    -45.00000000	     35.32149673	  -2400.14744013	   -271.92397795	     11.17745797	    179.99999979	   1093.09575871	    206.50453572	     10.21787818	    -16.39432460
      9.27000000	    -38.95356708	     -8.57203344	     14.03531436	   -250.59306537	    847.33548419	      4.50389229	      7.08812743	    -39.86059769	     37.49543720	    -45.00000000	     43.37092649	   2507.33905094	  -2639.31640756	    -90.00000000	    -72.27357181	   1801.89556870	   -121.01254783	     19.43320989	     15.00201853	     -2.27785283	     42.22214350	    -45.00000000	    -45.00000000	     35.19752560	  -2400.19388700	   -272.21852946	     11.12468210	    179.99999979	   1093.02222764	    206.67050978	     10.50114263	    -16.47403832
      9.28000000	    -38.98061063	     -8.69533087	     14.10454761	   -250.27607620	    846.92914155	      4.51814897	      7.06146011	    -39.85153327	     37.62338296	    -45.00000000	     43.27671212	   2507.24126450	  -2639.27772734	    -90.00000000	    -72.29929277	   1801.92823076	   -121.02075020	     19.37222312	     14.92170602	     -2.25402151	     42.22146856	    -45.00000000	    -45.00000000	     35.09040391	  -2400.16000243	   -272.27499304	     11.12149340	    179.99999979	   1093.02327312	    206.79337742	     10.29898822	    -16.50845946
      9.29000000	    -38.99158484	     -8.84946265	     14.26924138	   -249.90438937	    846.55062180	      4.54596823	      7.12498466	    -39.86835589	     37.69931265	    -45.00000000	     43.11394576	   2507.21210523	  -2639.21056068	    -90.00000000	    -72.35411157	   1801.94986821	   -121.00286066	     19.46507707	     15.00163068	     -2.25047259	     42.24784740	    -45.00000000	    -45.00000000	     34.98073069	  -2400.15364664	   -272.28259293	     11.11326778	    179.99999979	   1093.06550623	    206.93839553	     10.37918896	    -16.53554130
      9.30000000	    -38.97661162	     -9.01044026	     14.38250044	   -249.48329982	    846.19605753	      4.58161432	      7.23985987	    -39.88718701	     37.75797490	    -45.00000000	     43.15366869	   2507.23050310	  -2639.16128623	    -90.00000000	    -72.39189947	   1801.99146417	   -120.94551506	     19.41973480	     14.95952290	     -2.27035505	     42.24903071	    -45.00000000	    -45.00000000	     34.85967852	  -2400.15215087	   -272.31236137	     11.05151958	    179.99999979	   1093.06977778	    207.05190429	     10.23937585	    -16.54882832
      9.31000000	    -39.06030069	     -8.95495418	     14.30293657	   -249.02059959	    845.86466770	      4.61936895	      7.20244994	    -39.86881893	     37.88053762	    -45.00000000	     43.35835042	   2507.13583361	  -2639.11024016	    -90.00000000	    -72.43143210	   1801.99441238	   -120.86851283	     19.46690265	     15.02611993	     -2.24498495	     42.29015039	    -45.00000000	    -45.00000000	     34.87166276	  -2400.13730531	   -272.45477277	     11.09991909	    179.99999979	   1093.03270179	    207.18483203	     10.32605860	    -16.61075543
